<svg width="320" height="320" viewBox="0 0 320 320" fill="none" xmlns="http://www.w3.org/2000/svg">
  <!-- Background circle -->
  <circle cx="160" cy="160" r="150" fill="url(#gradient1)" opacity="0.1"/>
  
  <!-- Book stack -->
  <g transform="translate(80, 120)">
    <!-- Book 1 -->
    <rect x="0" y="0" width="60" height="80" rx="4" fill="#667eea" stroke="#4c63d2" stroke-width="2"/>
    <rect x="4" y="4" width="52" height="72" rx="2" fill="#ffffff"/>
    <line x1="8" y1="20" x2="52" y2="20" stroke="#667eea" stroke-width="1"/>
    <line x1="8" y1="30" x2="48" y2="30" stroke="#667eea" stroke-width="1"/>
    <line x1="8" y1="40" x2="44" y2="40" stroke="#667eea" stroke-width="1"/>
    
    <!-- Book 2 -->
    <rect x="8" y="-8" width="60" height="80" rx="4" fill="#764ba2" stroke="#5a3d7a" stroke-width="2"/>
    <rect x="12" y="-4" width="52" height="72" rx="2" fill="#ffffff"/>
    <line x1="16" y1="12" x2="60" y2="12" stroke="#764ba2" stroke-width="1"/>
    <line x1="16" y1="22" x2="56" y2="22" stroke="#764ba2" stroke-width="1"/>
    <line x1="16" y1="32" x2="52" y2="32" stroke="#764ba2" stroke-width="1"/>
    
    <!-- Book 3 -->
    <rect x="16" y="-16" width="60" height="80" rx="4" fill="#f093fb" stroke="#d875e8" stroke-width="2"/>
    <rect x="20" y="-12" width="52" height="72" rx="2" fill="#ffffff"/>
    <line x1="24" y1="4" x2="68" y2="4" stroke="#f093fb" stroke-width="1"/>
    <line x1="24" y1="14" x2="64" y2="14" stroke="#f093fb" stroke-width="1"/>
    <line x1="24" y1="24" x2="60" y2="24" stroke="#f093fb" stroke-width="1"/>
  </g>
  
  <!-- Reading person -->
  <g transform="translate(200, 140)">
    <!-- Head -->
    <circle cx="0" cy="0" r="20" fill="#ffd93d"/>
    <circle cx="-6" cy="-4" r="3" fill="#333"/>
    <circle cx="6" cy="-4" r="3" fill="#333"/>
    <path d="M -4 4 Q 0 8 4 4" stroke="#333" stroke-width="2" fill="none"/>
    
    <!-- Body -->
    <rect x="-15" y="20" width="30" height="40" rx="15" fill="#4facfe"/>
    
    <!-- Arms -->
    <ellipse cx="-25" cy="35" rx="8" ry="15" fill="#4facfe"/>
    <ellipse cx="25" cy="35" rx="8" ry="15" fill="#4facfe"/>
    
    <!-- Hands -->
    <circle cx="-30" cy="50" r="6" fill="#ffd93d"/>
    <circle cx="30" cy="50" r="6" fill="#ffd93d"/>
    
    <!-- Legs -->
    <rect x="-12" y="60" width="8" height="25" rx="4" fill="#4facfe"/>
    <rect x="4" y="60" width="8" height="25" rx="4" fill="#4facfe"/>
    
    <!-- Feet -->
    <ellipse cx="-8" cy="85" rx="6" ry="3" fill="#333"/>
    <ellipse cx="8" cy="85" rx="6" ry="3" fill="#333"/>
  </g>
  
  <!-- Floating elements -->
  <g opacity="0.6">
    <!-- Stars -->
    <path d="M 50 80 L 52 84 L 56 84 L 53 87 L 54 91 L 50 89 L 46 91 L 47 87 L 44 84 L 48 84 Z" fill="#ffd93d"/>
    <path d="M 270 60 L 272 64 L 276 64 L 273 67 L 274 71 L 270 69 L 266 71 L 267 67 L 264 64 L 268 64 Z" fill="#ffd93d"/>
    <path d="M 240 200 L 242 204 L 246 204 L 243 207 L 244 211 L 240 209 L 236 211 L 237 207 L 234 204 L 238 204 Z" fill="#ffd93d"/>
    
    <!-- Dots -->
    <circle cx="80" cy="60" r="3" fill="#667eea"/>
    <circle cx="280" cy="180" r="2" fill="#764ba2"/>
    <circle cx="60" cy="220" r="2" fill="#f093fb"/>
  </g>
  
  <!-- Gradients -->
  <defs>
    <linearGradient id="gradient1" x1="0%" y1="0%" x2="100%" y2="100%">
      <stop offset="0%" style="stop-color:#667eea;stop-opacity:1" />
      <stop offset="100%" style="stop-color:#764ba2;stop-opacity:1" />
    </linearGradient>
  </defs>
</svg> 